# Blender v3.4.1 OBJ File: 'stones.blend'
# www.blender.org
mtllib WaterDrop.mtl
o WaterDrop
v -0.057257 0.005618 0.057257
v -0.027543 0.175659 0.027543
v -0.057257 0.005618 -0.057257
v -0.027543 0.175659 -0.030199
v 0.057257 0.005618 0.057257
v 0.030199 0.175659 0.027543
v 0.057257 0.005618 -0.057257
v 0.030199 0.175659 -0.030199
v -0.066103 0.064617 0.066103
v -0.066103 0.064617 -0.066103
v 0.054152 0.116524 -0.054152
v 0.066103 0.064617 0.066103
v -0.000000 -0.003185 -0.065723
v 0.001328 0.177859 -0.038494
v -0.000000 -0.003185 0.065723
v 0.001328 0.177859 0.035838
v -0.000000 0.064502 0.085546
v -0.000000 0.064502 -0.085546
v -0.064501 -0.001945 0.000000
v -0.035941 0.177051 -0.001328
v 0.064501 -0.001945 0.000000
v 0.038597 0.177051 -0.001328
v 0.082809 0.064455 0.000000
v -0.082809 0.064455 0.000000
v 0.001328 0.201039 -0.001328
v -0.000000 -0.030172 0.000000
vt 0.198819 0.208993
vt 0.198819 0.570299
vt 0.198819 0.543477
vt 0.198819 0.222463
vt 0.198819 0.228462
vt 0.198819 0.559088
vt 0.198819 0.544344
vt 0.198819 0.362093
vt 0.198819 0.217654
vt 0.198819 0.571144
vt 0.198819 0.573644
vt 0.198819 0.204016
vt 0.198819 0.195387
vt 0.198819 0.598649
vt 0.198819 0.572991
vt 0.198819 0.196259
vt 0.198819 0.023487
vt 0.198819 0.106281
vt 0.198819 0.104119
vt 0.198819 0.069414
vt 0.198819 0.716079
vt 0.198819 0.094264
vt 0.198819 0.122201
vt 0.198819 0.146036
vt 0.198819 0.095932
vt 0.198819 0.138070
vn -0.9966 0.0828 0.0008
vn -0.7439 0.6683 -0.0011
vn -0.5637 0.6147 -0.5517
vn -0.7163 0.0786 -0.6933
vn 0.0354 0.0618 -0.9975
vn -0.0220 0.6778 -0.7349
vn 0.5548 0.6328 -0.5401
vn 0.6854 0.2927 -0.6668
vn 0.9975 0.0614 -0.0353
vn 0.7483 0.6630 0.0209
vn 0.5686 0.6145 0.5469
vn 0.7138 0.0784 0.6959
vn -0.0009 0.0834 0.9965
vn 0.0012 0.6828 0.7306
vn -0.5627 0.6207 0.5459
vn -0.7147 0.0846 0.6943
vn 0.0000 -1.0000 0.0000
vn 0.7555 -0.6537 -0.0431
vn 0.6009 -0.5522 0.5779
vn -0.0000 -0.6880 0.7257
vn 0.0000 1.0000 0.0000
vn -0.6009 -0.5522 0.5779
vn 0.0440 -0.6662 -0.7445
vn 0.6436 -0.4505 -0.6187
vn -0.7369 -0.6760 0.0000
vn -0.6009 -0.5522 -0.5779
g WaterDrop_WaterDrop_Material
usemtl Material
s 1
f 24/1/1 20/2/2 4/3/3 10/4/4
f 18/5/5 14/6/6 8/7/7 11/8/8
f 23/9/9 22/10/10 6/11/11 12/12/12
f 17/13/13 16/14/14 2/15/15 9/16/16
f 26/17/17 21/18/18 5/19/19 15/20/20
f 25/21/21 20/2/2 2/15/15 16/14/14
f 15/20/20 17/13/13 9/16/16 1/22/22
f 21/18/18 23/9/9 12/12/12 5/19/19
f 13/23/23 18/5/5 11/8/8 7/24/24
f 19/25/25 24/1/1 10/4/4 3/26/26
f 3/26/26 10/4/4 18/5/5 13/23/23
f 5/19/19 12/12/12 17/13/13 15/20/20
f 22/10/10 25/21/21 16/14/14 6/11/11
f 19/25/25 26/17/17 15/20/20 1/22/22
f 12/12/12 6/11/11 16/14/14 17/13/13
f 10/4/4 4/3/3 14/6/6 18/5/5
f 3/26/26 13/23/23 26/17/17 19/25/25
f 8/7/7 14/6/6 25/21/21 22/10/10
f 1/22/22 9/16/16 24/1/1 19/25/25
f 7/24/24 11/8/8 23/9/9 21/18/18
f 14/6/6 4/3/3 20/2/2 25/21/21
f 13/23/23 7/24/24 21/18/18 26/17/17
f 11/8/8 8/7/7 22/10/10 23/9/9
f 9/16/16 2/15/15 20/2/2 24/1/1
